{
.appVersion = "1325";
DisplayStrings = (
"01356789/space/space",
ASHRNOHE
);
copyright = "Copyright (c) 2020, Measure + Fit <micah@measureandfit.co>";
customParameters = (
{
name = Axes;
value = (
{
Name = "Optical size";
Tag = opsz;
}
);
},
{
name = note;
value = "72pt \012offset curve 45 36 make stroke ~auto stroke~ keep compatible\012\01210pt \012offset curve 80 83 make stroke ~auto stroke~ keep compatible\012cap vert stem slant 3°, cap horz stem end slant 30°";
}
);
date = "2020-04-30 17:28:11 +0000";
designer = "Measure + Fit";
designerURL = "http://measureandfit.co";
familyName = Kivi;
fontMaster = (
{
alignmentZones = (
"{1600, 16}",
"{1500, 30}",
"{1000, 31}",
"{0, -31}",
"{-400, -31}"
);
ascender = 1600;
capHeight = 1500;
custom = "10pt";
descender = -400;
guideLines = (
{
angle = 267.1376;
position = "{238, 750}";
}
);
iconName = Bold_Extended;
id = "1D6801CC-F467-42FC-B264-F4F04A585D09";
userData = {
GSOffsetHorizontal = 80;
GSOffsetKeepCompatible = 1;
GSOffsetMakeStroke = 1;
GSOffsetVertical = 83;
};
weightValue = 10;
xHeight = 1000;
},
{
alignmentZones = (
"{1600, 16}",
"{1530, 31}",
"{1000, 31}",
"{0, -31}",
"{-400, -31}"
);
ascender = 1600;
capHeight = 1530;
custom = "24pt";
descender = -400;
iconName = SemiExtended;
id = "DE97F4B0-A943-4932-8B42-452AEC9B63CC";
weightValue = 24;
xHeight = 1000;
},
{
alignmentZones = (
"{1600, 30}",
"{1530, 30}",
"{1000, 30}",
"{0, -30}",
"{-400, -30}"
);
ascender = 1600;
capHeight = 1530;
custom = "72pt";
descender = -400;
iconName = Light;
id = "A206D0FC-BA4D-4B80-B5C2-F7675B673614";
userData = {
GSOffsetHorizontal = 45;
GSOffsetKeepCompatible = 1;
GSOffsetMakeStroke = 1;
GSOffsetVertical = 36;
};
weightValue = 72;
xHeight = 1000;
}
);
glyphs = (
{
color = 1;
glyphname = A;
lastChange = "2020-05-06 20:58:47 +0000";
layers = (
{
layerId = "DE97F4B0-A943-4932-8B42-452AEC9B63CC";
width = 1200;
},
{
backgroundImage = {
crop = "{{0, 0}, {22, 23}}";
imagePath = "../documentation/resources/glyph images/A.png";
transform = "{85, 0, 0, 85, -30, -254}";
};
layerId = "1D6801CC-F467-42FC-B264-F4F04A585D09";
paths = (
{
closed = 1;
nodes = (
"302 0 LINE",
"1017 1305 LINE",
"910 1305 LINE",
"1405 0 LINE",
"1572 0 LINE",
"976 1568 LINE",
"978 1568 LINE",
"118 0 LINE"
);
},
{
closed = 1;
nodes = (
"1035 341 LINE",
"1133 510 LINE",
"492 510 LINE",
"442 341 LINE"
);
}
);
width = 1695;
},
{
layerId = "A206D0FC-BA4D-4B80-B5C2-F7675B673614";
width = 1622;
}
);
unicode = 0041;
},
{
color = 1;
glyphname = B;
lastChange = "2020-05-06 20:55:59 +0000";
layers = (
{
layerId = "DE97F4B0-A943-4932-8B42-452AEC9B63CC";
width = 1200;
},
{
background = {
backgroundImage = {
crop = "{{0, 0}, {22, 24}}";
imagePath = "../documentation/resources/glyph images/B.png";
transform = "{81, 0, 0, 80.5, -215, -160}";
};
};
layerId = "1D6801CC-F467-42FC-B264-F4F04A585D09";
paths = (
{
closed = 1;
nodes = (
"815 0 LINE",
"1129 0 OFFCURVE",
"1308 229 OFFCURVE",
"1308 464 CURVE SMOOTH",
"1308 649 OFFCURVE",
"1197 839 OFFCURVE",
"953 860 CURVE",
"976 793 LINE",
"1086 894 OFFCURVE",
"1155 992 OFFCURVE",
"1155 1139 CURVE SMOOTH",
"1155 1332 OFFCURVE",
"1037 1500 OFFCURVE",
"834 1500 CURVE SMOOTH",
"277 1500 LINE",
"202 0 LINE"
);
},
{
closed = 1;
nodes = (
"391 712 LINE",
"875 712 LINE SMOOTH",
"1065 712 OFFCURVE",
"1156 581 OFFCURVE",
"1156 452 CURVE SMOOTH",
"1156 304 OFFCURVE",
"1035 159 OFFCURVE",
"809 159 CURVE",
"363 159 LINE"
);
},
{
closed = 1;
nodes = (
"423 1341 LINE",
"834 1341 LINE SMOOTH",
"985 1341 OFFCURVE",
"1001 1199 OFFCURVE",
"1001 1137 CURVE SMOOTH",
"1001 1001 OFFCURVE",
"923 861 OFFCURVE",
"744 861 CURVE SMOOTH",
"399 861 LINE"
);
}
);
width = 1448;
},
{
guideLines = (
{
angle = 267.1563;
position = "{163, 765}";
}
);
layerId = "A206D0FC-BA4D-4B80-B5C2-F7675B673614";
width = 1300;
}
);
unicode = 0042;
},
{
color = 1;
glyphname = C;
lastChange = "2020-05-06 20:59:57 +0000";
layers = (
{
layerId = "DE97F4B0-A943-4932-8B42-452AEC9B63CC";
width = 1200;
},
{
background = {
backgroundImage = {
crop = "{{0, 0}, {20, 27}}";
imagePath = "../documentation/resources/glyph images/C.png";
transform = "{77.9, 0, 0, 77.9, 118, -264}";
};
};
layerId = "1D6801CC-F467-42FC-B264-F4F04A585D09";
paths = (
{
closed = 1;
nodes = (
"1441 1413 OFFCURVE",
"1207 1528 OFFCURVE",
"944 1528 CURVE SMOOTH",
"484 1528 OFFCURVE",
"112 1178 OFFCURVE",
"112 746 CURVE SMOOTH",
"112 314 OFFCURVE",
"484 -36 OFFCURVE",
"944 -36 CURVE SMOOTH",
"1218 -36 OFFCURVE",
"1461 89 OFFCURVE",
"1613 282 CURVE",
"1437 337 LINE",
"1317 209 OFFCURVE",
"1141 128 OFFCURVE",
"945 128 CURVE SMOOTH",
"581 128 OFFCURVE",
"287 405 OFFCURVE",
"287 746 CURVE SMOOTH",
"287 1087 OFFCURVE",
"581 1364 OFFCURVE",
"945 1364 CURVE SMOOTH",
"1128 1364 OFFCURVE",
"1294 1294 OFFCURVE",
"1413 1180 CURVE",
"1593 1235 LINE"
);
}
);
width = 1691;
},
{
backgroundImage = {
crop = "{{0, 0}, {20, 27}}";
imagePath = "../documentation/resources/glyph images/C.png";
transform = "{79.47, 0, 0, 79.47, 0, -268}";
};
layerId = "A206D0FC-BA4D-4B80-B5C2-F7675B673614";
width = 1200;
}
);
unicode = 0043;
},
{
glyphname = D;
lastChange = "2020-05-06 20:56:50 +0000";
layers = (
{
layerId = "DE97F4B0-A943-4932-8B42-452AEC9B63CC";
width = 1200;
},
{
background = {
backgroundImage = {
crop = "{{0, 0}, {26, 38}}";
imagePath = "../documentation/resources/glyph images/DE.png";
transform = "{78.9, 0, 0, 78.9, -89, -788}";
};
};
layerId = "1D6801CC-F467-42FC-B264-F4F04A585D09";
paths = (
{
closed = 1;
nodes = (
"373 0 LINE SMOOTH",
"700 0 OFFCURVE",
"1020 370 OFFCURVE",
"1020 817 CURVE SMOOTH",
"1020 1293 OFFCURVE",
"658 1500 OFFCURVE",
"316 1500 CURVE",
"247 1500 LINE",
"248 1340 LINE",
"334 1340 LINE SMOOTH",
"581 1340 OFFCURVE",
"860 1168 OFFCURVE",
"860 817 CURVE SMOOTH",
"860 477 OFFCURVE",
"598 159 OFFCURVE",
"356 159 CURVE SMOOTH",
"222 159 LINE",
"104 0 LINE"
);
},
{
closed = 1;
nodes = (
"102 0 LINE",
"262 0 LINE",
"262 1500 LINE",
"102 1500 LINE"
);
}
);
width = 1200;
},
{
layerId = "A206D0FC-BA4D-4B80-B5C2-F7675B673614";
width = 1200;
}
);
unicode = 0044;
},
{
color = 1;
glyphname = E;
lastChange = "2020-05-06 20:58:16 +0000";
layers = (
{
layerId = "DE97F4B0-A943-4932-8B42-452AEC9B63CC";
width = 1200;
},
{
background = {
backgroundImage = {
crop = "{{0, 0}, {26, 38}}";
imagePath = "../documentation/resources/glyph images/DE.png";
transform = "{78.9, 0, 0, 78.9, -102, -788}";
};
};
backgroundImage = {
crop = "{{0, 0}, {26, 38}}";
imagePath = "../documentation/resources/glyph images/DE.png";
transform = "{78.9, 0, 0, 78.9, -922, -788}";
};
layerId = "1D6801CC-F467-42FC-B264-F4F04A585D09";
paths = (
{
closed = 1;
nodes = (
"360 0 LINE",
"360 1500 LINE",
"200 1500 LINE",
"200 0 LINE"
);
},
{
closed = 1;
nodes = (
"965 0 LINE",
"965 167 LINE",
"330 167 LINE",
"330 0 LINE"
);
},
{
closed = 1;
nodes = (
"640 726 LINE",
"732 894 LINE",
"323 894 LINE",
"323 726 LINE"
);
},
{
closed = 1;
nodes = (
"865 1331 LINE",
"865 1500 LINE",
"331 1500 LINE",
"331 1331 LINE"
);
}
);
width = 1045;
},
{
layerId = "A206D0FC-BA4D-4B80-B5C2-F7675B673614";
width = 1200;
}
);
unicode = 0045;
},
{
color = 1;
glyphname = F;
lastChange = "2020-05-06 20:58:10 +0000";
layers = (
{
layerId = "DE97F4B0-A943-4932-8B42-452AEC9B63CC";
width = 1200;
},
{
layerId = "1D6801CC-F467-42FC-B264-F4F04A585D09";
paths = (
{
closed = 1;
nodes = (
"321 0 LINE",
"399 1500 LINE",
"239 1500 LINE",
"161 0 LINE"
);
},
{
closed = 1;
nodes = (
"640 722 LINE",
"732 892 LINE",
"323 892 LINE",
"323 722 LINE"
);
},
{
closed = 1;
nodes = (
"865 1331 LINE",
"865 1500 LINE",
"331 1500 LINE",
"331 1331 LINE"
);
}
);
width = 939;
},
{
layerId = "A206D0FC-BA4D-4B80-B5C2-F7675B673614";
width = 1200;
}
);
unicode = 0046;
},
{
color = 1;
glyphname = G;
lastChange = "2020-05-06 21:00:03 +0000";
layers = (
{
layerId = "DE97F4B0-A943-4932-8B42-452AEC9B63CC";
width = 1200;
},
{
layerId = "1D6801CC-F467-42FC-B264-F4F04A585D09";
paths = (
{
closed = 1;
nodes = (
"1441 1413 OFFCURVE",
"1207 1528 OFFCURVE",
"944 1528 CURVE SMOOTH",
"484 1528 OFFCURVE",
"112 1178 OFFCURVE",
"112 746 CURVE SMOOTH",
"112 314 OFFCURVE",
"484 -36 OFFCURVE",
"944 -36 CURVE SMOOTH",
"1218 -36 OFFCURVE",
"1461 89 OFFCURVE",
"1613 282 CURVE",
"1437 337 LINE",
"1317 209 OFFCURVE",
"1141 119 OFFCURVE",
"945 119 CURVE SMOOTH",
"581 119 OFFCURVE",
"278 405 OFFCURVE",
"278 746 CURVE SMOOTH",
"278 1087 OFFCURVE",
"581 1373 OFFCURVE",
"945 1373 CURVE SMOOTH",
"1128 1373 OFFCURVE",
"1294 1294 OFFCURVE",
"1413 1180 CURVE",
"1593 1235 LINE"
);
},
{
closed = 1;
nodes = (
"1437 337 LINE",
"1613 282 LINE",
"1613 654 LINE",
"1437 654 LINE"
);
},
{
closed = 1;
nodes = (
"1613 654 LINE",
"1204 654 LINE",
"1296 495 LINE",
"1613 495 LINE"
);
}
);
width = 1728;
},
{
layerId = "A206D0FC-BA4D-4B80-B5C2-F7675B673614";
width = 1200;
}
);
unicode = 0047;
},
{
color = 1;
glyphname = H;
lastChange = "2020-05-05 19:10:23 +0000";
layers = (
{
layerId = "DE97F4B0-A943-4932-8B42-452AEC9B63CC";
width = 1200;
},
{
layerId = "1D6801CC-F467-42FC-B264-F4F04A585D09";
paths = (
{
closed = 1;
nodes = (
"238 0 LINE",
"398 0 LINE",
"398 1500 LINE",
"238 1500 LINE"
);
},
{
closed = 1;
nodes = (
"1148 666 LINE",
"1246 835 LINE",
"315 835 LINE",
"265 666 LINE"
);
},
{
closed = 1;
nodes = (
"1338 0 LINE",
"1498 0 LINE",
"1498 1500 LINE",
"1338 1500 LINE"
);
}
);
width = 1736;
},
{
layerId = "A206D0FC-BA4D-4B80-B5C2-F7675B673614";
width = 1200;
}
);
unicode = 0048;
},
{
color = 1;
glyphname = I;
lastChange = "2020-05-06 18:50:06 +0000";
layers = (
{
layerId = "DE97F4B0-A943-4932-8B42-452AEC9B63CC";
width = 1200;
},
{
components = (
{
name = _cap.stem.vert;
transform = "{1, 0, 0, 1, -1010, 0}";
}
);
layerId = "1D6801CC-F467-42FC-B264-F4F04A585D09";
paths = (
{
closed = 1;
nodes = (
"161 1500 LINE",
"69 1341 LINE",
"488 1341 LINE",
"488 1500 LINE"
);
}
);
width = 688;
},
{
backgroundImage = {
crop = "{{0, 0}, {166, 524}}";
imagePath = "../documentation/resources/glyph images/large_I.gif";
transform = "{3, 0, 0, 3, 0, -10}";
};
layerId = "A206D0FC-BA4D-4B80-B5C2-F7675B673614";
width = 1200;
}
);
unicode = 0049;
},
{
color = 1;
glyphname = K;
lastChange = "2020-05-06 20:57:29 +0000";
layers = (
{
layerId = "DE97F4B0-A943-4932-8B42-452AEC9B63CC";
width = 1200;
},
{
backgroundImage = {
crop = "{{0, 0}, {12, 19}}";
imagePath = "../documentation/resources/glyph images/K.png";
transform = "{78.9, 0, 0, 78.9, 200, 0}";
};
layerId = "1D6801CC-F467-42FC-B264-F4F04A585D09";
paths = (
{
closed = 1;
nodes = (
"1011 0 LINE",
"1171 0 LINE",
"671 827 LINE",
"511 827 LINE"
);
},
{
closed = 1;
nodes = (
"1121 1500 LINE",
"961 1500 LINE",
"511 827 LINE",
"671 827 LINE"
);
},
{
closed = 1;
nodes = (
"200 0 LINE",
"360 0 LINE",
"360 1500 LINE",
"200 1500 LINE"
);
},
{
closed = 1;
nodes = (
"610 737 LINE",
"702 906 LINE",
"293 906 LINE",
"293 737 LINE"
);
}
);
width = 1239;
},
{
layerId = "A206D0FC-BA4D-4B80-B5C2-F7675B673614";
width = 1200;
}
);
unicode = 004B;
},
{
color = 1;
glyphname = L;
lastChange = "2020-05-06 20:57:33 +0000";
layers = (
{
layerId = "DE97F4B0-A943-4932-8B42-452AEC9B63CC";
width = 1200;
},
{
backgroundImage = {
crop = "{{0, 0}, {7, 19}}";
imagePath = "../documentation/resources/glyph images/L.png";
transform = "{78.9, 0, 0, 78.9, 200, 0}";
};
components = (
{
name = _cap.stem.vert;
transform = "{1, 0, 0, 1, -1138, 0}";
}
);
layerId = "1D6801CC-F467-42FC-B264-F4F04A585D09";
paths = (
{
closed = 1;
nodes = (
"660 0 LINE",
"752 169 LINE",
"303 169 LINE",
"303 0 LINE"
);
}
);
width = 821;
},
{
layerId = "A206D0FC-BA4D-4B80-B5C2-F7675B673614";
width = 1200;
}
);
unicode = 004C;
},
{
color = 1;
glyphname = M;
lastChange = "2020-05-06 19:01:02 +0000";
layers = (
{
layerId = "DE97F4B0-A943-4932-8B42-452AEC9B63CC";
width = 1200;
},
{
backgroundImage = {
crop = "{{0, 0}, {23, 19}}";
imagePath = "../documentation/resources/glyph images/M.png";
transform = "{78.9, 0, 0, 78.9, 89, 0}";
};
layerId = "1D6801CC-F467-42FC-B264-F4F04A585D09";
paths = (
{
closed = 1;
nodes = (
"85 0 LINE",
"261 0 LINE",
"590 1500 LINE",
"414 1500 LINE"
);
},
{
closed = 1;
nodes = (
"1820 0 LINE",
"1980 0 LINE",
"1980 1500 LINE",
"1820 1500 LINE"
);
},
{
closed = 1;
nodes = (
"550 1500 LINE",
"440 1429 LINE",
"1114 0 LINE",
"1222 158 LINE",
"590 1500 LINE"
);
},
{
closed = 1;
nodes = (
"1108 66 LINE",
"1114 0 LINE",
"1261 0 LINE",
"1973 1431 LINE",
"1820 1500 LINE"
);
}
);
width = 2180;
},
{
backgroundImage = {
crop = "{{0, 0}, {495, 524}}";
imagePath = "../documentation/resources/glyph images/large_M.gif";
transform = "{2.99993, 0.02094, -0.02094, 2.99993, 0, -39}";
};
layerId = "A206D0FC-BA4D-4B80-B5C2-F7675B673614";
width = 1450;
}
);
unicode = 004D;
},
{
color = 1;
glyphname = N;
lastChange = "2020-05-05 18:59:25 +0000";
layers = (
{
layerId = "DE97F4B0-A943-4932-8B42-452AEC9B63CC";
width = 1200;
},
{
background = {
backgroundImage = {
crop = "{{0, 0}, {22, 26}}";
imagePath = "../documentation/resources/glyph images/N2.png";
transform = "{78.9, 0, 0, 78.9, -66, -236}";
};
};
layerId = "1D6801CC-F467-42FC-B264-F4F04A585D09";
paths = (
{
closed = 1;
nodes = (
"136 0 LINE",
"312 0 LINE",
"641 1500 LINE",
"465 1500 LINE"
);
},
{
closed = 1;
nodes = (
"1315 0 LINE",
"1475 0 LINE",
"1475 1500 LINE",
"1315 1500 LINE"
);
},
{
closed = 1;
nodes = (
"625 1500 LINE",
"515 1429 LINE",
"1315 0 LINE",
"1417 158 LINE",
"665 1500 LINE"
);
}
);
width = 1713;
},
{
layerId = "A206D0FC-BA4D-4B80-B5C2-F7675B673614";
width = 1200;
}
);
unicode = 004E;
},
{
color = 1;
glyphname = O;
lastChange = "2020-05-06 20:59:42 +0000";
layers = (
{
layerId = "DE97F4B0-A943-4932-8B42-452AEC9B63CC";
width = 1200;
},
{
background = {
backgroundImage = {
crop = "{{0, 0}, {24, 20}}";
imagePath = "../documentation/resources/glyph images/Ob.png";
transform = "{77.9, 0, 0, 77.9, 109, -28}";
};
};
layerId = "1D6801CC-F467-42FC-B264-F4F04A585D09";
paths = (
{
closed = 1;
nodes = (
"1403 -36 OFFCURVE",
"1775 314 OFFCURVE",
"1775 746 CURVE SMOOTH",
"1775 1178 OFFCURVE",
"1403 1528 OFFCURVE",
"944 1528 CURVE SMOOTH",
"484 1528 OFFCURVE",
"112 1178 OFFCURVE",
"112 746 CURVE SMOOTH",
"112 314 OFFCURVE",
"484 -36 OFFCURVE",
"944 -36 CURVE SMOOTH"
);
},
{
closed = 1;
nodes = (
"581 128 OFFCURVE",
"287 405 OFFCURVE",
"287 746 CURVE SMOOTH",
"287 1087 OFFCURVE",
"581 1364 OFFCURVE",
"945 1364 CURVE SMOOTH",
"1308 1364 OFFCURVE",
"1602 1087 OFFCURVE",
"1602 746 CURVE SMOOTH",
"1602 405 OFFCURVE",
"1308 128 OFFCURVE",
"945 128 CURVE SMOOTH"
);
}
);
width = 1887;
},
{
backgroundImage = {
crop = "{{0, 0}, {535, 524}}";
imagePath = "../documentation/resources/glyph images/large_O.png";
transform = "{3.2, 0, 0, 3.2, 0, -42}";
};
guideLines = (
{
position = "{866, -30}";
},
{
position = "{877, 1560}";
},
{
angle = 90;
position = "{1564, 760}";
},
{
angle = 90;
position = "{34, 771}";
}
);
layerId = "A206D0FC-BA4D-4B80-B5C2-F7675B673614";
paths = (
{
closed = 1;
nodes = (
"1222 -30 OFFCURVE",
"1564 326 OFFCURVE",
"1564 765 CURVE SMOOTH",
"1564 1204 OFFCURVE",
"1222 1560 OFFCURVE",
"799 1560 CURVE SMOOTH",
"376 1560 OFFCURVE",
"34 1204 OFFCURVE",
"34 765 CURVE SMOOTH",
"34 326 OFFCURVE",
"376 -30 OFFCURVE",
"799 -30 CURVE SMOOTH"
);
},
{
closed = 1;
nodes = (
"451 122 OFFCURVE",
"160 404 OFFCURVE",
"160 765 CURVE SMOOTH",
"160 1126 OFFCURVE",
"451 1408 OFFCURVE",
"799 1408 CURVE SMOOTH",
"1147 1408 OFFCURVE",
"1438 1126 OFFCURVE",
"1438 765 CURVE SMOOTH",
"1438 404 OFFCURVE",
"1147 122 OFFCURVE",
"799 122 CURVE SMOOTH"
);
}
);
width = 1490;
}
);
unicode = 004F;
},
{
color = 1;
glyphname = P;
lastChange = "2020-05-06 20:59:03 +0000";
layers = (
{
layerId = "DE97F4B0-A943-4932-8B42-452AEC9B63CC";
width = 1200;
},
{
background = {
backgroundImage = {
crop = "{{0, 0}, {12, 19}}";
imagePath = "../documentation/resources/glyph images/P2.png";
transform = "{78.9, 0, 0, 78.9, 162, 0}";
};
};
layerId = "1D6801CC-F467-42FC-B264-F4F04A585D09";
paths = (
{
closed = 1;
nodes = (
"360 0 LINE",
"360 1386 LINE",
"315 1331 LINE",
"594 1331 LINE SMOOTH",
"760 1331 OFFCURVE",
"878 1264 OFFCURVE",
"878 1140 CURVE SMOOTH",
"878 1006 OFFCURVE",
"741 944 OFFCURVE",
"562 901 CURVE",
"561 739 LINE",
"876 836 OFFCURVE",
"1048 931 OFFCURVE",
"1048 1145 CURVE SMOOTH",
"1048 1369 OFFCURVE",
"859 1500 OFFCURVE",
"605 1500 CURVE SMOOTH",
"200 1500 LINE",
"200 0 LINE"
);
}
);
width = 1137;
},
{
layerId = "A206D0FC-BA4D-4B80-B5C2-F7675B673614";
width = 1200;
}
);
unicode = 0050;
},
{
glyphname = Q;
lastChange = "2020-05-06 20:59:15 +0000";
layers = (
{
layerId = "DE97F4B0-A943-4932-8B42-452AEC9B63CC";
width = 1200;
},
{
layerId = "1D6801CC-F467-42FC-B264-F4F04A585D09";
paths = (
{
closed = 1;
nodes = (
"1554 129 OFFCURVE",
"1775 414 OFFCURVE",
"1775 746 CURVE SMOOTH",
"1775 1178 OFFCURVE",
"1403 1528 OFFCURVE",
"944 1528 CURVE SMOOTH",
"484 1528 OFFCURVE",
"112 1178 OFFCURVE",
"112 746 CURVE SMOOTH",
"112 427 OFFCURVE",
"316 151 OFFCURVE",
"608 30 CURVE",
"610 55 LINE",
"559 35 OFFCURVE",
"516 9 OFFCURVE",
"483 -26 CURVE",
"595 -157 LINE",
"647 -62 OFFCURVE",
"782 -30 OFFCURVE",
"944 -36 CURVE",
"1227 -81 OFFCURVE",
"1394 -213 OFFCURVE",
"1624 -297 CURVE",
"1536 -68 LINE",
"1231 43 LINE",
"1244 17 LINE"
);
},
{
closed = 1;
nodes = (
"287 1087 OFFCURVE",
"581 1364 OFFCURVE",
"945 1364 CURVE SMOOTH",
"1308 1364 OFFCURVE",
"1602 1087 OFFCURVE",
"1602 746 CURVE SMOOTH",
"1602 405 OFFCURVE",
"1308 128 OFFCURVE",
"945 128 CURVE SMOOTH",
"581 128 OFFCURVE",
"287 405 OFFCURVE",
"287 746 CURVE SMOOTH"
);
}
);
width = 1887;
},
{
layerId = "A206D0FC-BA4D-4B80-B5C2-F7675B673614";
width = 1200;
}
);
unicode = 0051;
},
{
color = 1;
glyphname = R;
lastChange = "2020-05-06 21:00:19 +0000";
layers = (
{
layerId = "DE97F4B0-A943-4932-8B42-452AEC9B63CC";
width = 1200;
},
{
background = {
backgroundImage = {
crop = "{{0, 0}, {13, 19}}";
imagePath = "../documentation/resources/glyph images/R.png";
transform = "{78.9, 0, 0, 78.9, 200, 0}";
};
};
guideLines = (
{
angle = -58.8179;
position = "{875, 385}";
}
);
layerId = "1D6801CC-F467-42FC-B264-F4F04A585D09";
paths = (
{
closed = 1;
nodes = (
"939 883 OFFCURVE",
"1048 974 OFFCURVE",
"1048 1145 CURVE SMOOTH",
"1048 1369 OFFCURVE",
"859 1500 OFFCURVE",
"605 1500 CURVE SMOOTH",
"200 1500 LINE",
"200 0 LINE",
"360 0 LINE",
"360 1386 LINE",
"315 1331 LINE",
"594 1331 LINE SMOOTH",
"760 1331 OFFCURVE",
"878 1264 OFFCURVE",
"878 1140 CURVE SMOOTH",
"878 1006 OFFCURVE",
"741 944 OFFCURVE",
"563 901 CURVE",
"1108 0 LINE",
"1268 0 LINE",
"750 858 LINE",
"739 797 LINE"
);
}
);
width = 1331;
},
{
backgroundImage = {
crop = "{{0, 0}, {637, 524}}";
imagePath = "../documentation/resources/glyph images/large_RT.gif";
transform = "{3, 0, 0, 3, 30, -3}";
};
layerId = "A206D0FC-BA4D-4B80-B5C2-F7675B673614";
width = 1200;
}
);
unicode = 0052;
},
{
color = 1;
glyphname = S;
lastChange = "2020-05-06 21:13:38 +0000";
layers = (
{
layerId = "DE97F4B0-A943-4932-8B42-452AEC9B63CC";
width = 1200;
},
{
layerId = "1D6801CC-F467-42FC-B264-F4F04A585D09";
width = 1200;
},
{
background = {
backgroundImage = {
crop = "{{0, 0}, {263, 524}}";
imagePath = "../documentation/resources/glyph images/S.gif";
transform = "{3.05, 0, 0, 3.05, -106, -15}";
};
};
layerId = "A206D0FC-BA4D-4B80-B5C2-F7675B673614";
paths = (
{
closed = 1;
nodes = (
"460 1546 OFFCURVE",
"418 1560 OFFCURVE",
"358 1560 CURVE SMOOTH",
"173 1560 OFFCURVE",
"25 1436 OFFCURVE",
"25 1281 CURVE SMOOTH",
"25 1112 OFFCURVE",
"133 1011 OFFCURVE",
"248 878 CURVE SMOOTH",
"282 839 OFFCURVE",
"294 827 OFFCURVE",
"369 744 CURVE SMOOTH",
"428 678 OFFCURVE",
"449 625 OFFCURVE",
"449 540 CURVE SMOOTH",
"449 376 OFFCURVE",
"386 265 OFFCURVE",
"142 0 CURVE",
"280 0 LINE",
"507 264 OFFCURVE",
"562 369 OFFCURVE",
"562 540 CURVE SMOOTH",
"562 647 OFFCURVE",
"537 710 OFFCURVE",
"456 803 CURVE SMOOTH",
"373 898 OFFCURVE",
"301 966 OFFCURVE",
"238 1040 CURVE SMOOTH",
"172 1117 OFFCURVE",
"135 1204 OFFCURVE",
"135 1281 CURVE SMOOTH",
"135 1380 OFFCURVE",
"234 1458 OFFCURVE",
"358 1458 CURVE SMOOTH",
"402 1458 OFFCURVE",
"438 1448 OFFCURVE",
"471 1426 CURVE",
"501 1514 LINE"
);
}
);
width = 605;
}
);
unicode = 0053;
},
{
color = 1;
glyphname = zero;
lastChange = "2020-05-04 20:23:25 +0000";
layers = (
{
layerId = "DE97F4B0-A943-4932-8B42-452AEC9B63CC";
width = 1200;
},
{
layerId = "1D6801CC-F467-42FC-B264-F4F04A585D09";
width = 1200;
},
{
backgroundImage = {
crop = "{{0, 0}, {257, 342}}";
imagePath = "../documentation/resources/glyph images/large_0.gif";
transform = "{4.96, 0, 0, 4.96, 25, -124}";
};
layerId = "A206D0FC-BA4D-4B80-B5C2-F7675B673614";
paths = (
{
closed = 1;
nodes = (
"955 -18 OFFCURVE",
"1226 253 OFFCURVE",
"1226 557 CURVE SMOOTH",
"1226 874 OFFCURVE",
"969 1131 OFFCURVE",
"654 1131 CURVE SMOOTH",
"339 1131 OFFCURVE",
"81 874 OFFCURVE",
"81 557 CURVE SMOOTH",
"81 253 OFFCURVE",
"352 -18 OFFCURVE",
"654 -18 CURVE SMOOTH"
);
},
{
closed = 1;
nodes = (
"380 36 OFFCURVE",
"137 282 OFFCURVE",
"137 557 CURVE SMOOTH",
"137 844 OFFCURVE",
"369 1077 OFFCURVE",
"654 1077 CURVE SMOOTH",
"939 1077 OFFCURVE",
"1170 844 OFFCURVE",
"1170 557 CURVE SMOOTH",
"1170 282 OFFCURVE",
"927 36 OFFCURVE",
"654 36 CURVE SMOOTH"
);
}
);
width = 1307;
}
);
unicode = 0030;
},
{
color = 1;
glyphname = one;
lastChange = "2020-05-04 20:23:25 +0000";
layers = (
{
layerId = "DE97F4B0-A943-4932-8B42-452AEC9B63CC";
width = 1200;
},
{
layerId = "1D6801CC-F467-42FC-B264-F4F04A585D09";
width = 1200;
},
{
backgroundImage = {
crop = "{{0, 0}, {79, 342}}";
imagePath = "../documentation/resources/glyph images/large_1.gif";
transform = "{4.96, 0, 0, 4.96, -27, -140}";
};
layerId = "A206D0FC-BA4D-4B80-B5C2-F7675B673614";
paths = (
{
closed = 1;
nodes = (
"161 0 LINE",
"251 0 LINE",
"251 1046 LINE",
"221 1046 OFFCURVE",
"191 1050 OFFCURVE",
"161 1056 CURVE"
);
}
);
width = 411;
}
);
unicode = 0031;
},
{
color = 1;
glyphname = three;
lastChange = "2020-05-04 20:23:25 +0000";
layers = (
{
layerId = "DE97F4B0-A943-4932-8B42-452AEC9B63CC";
width = 1200;
},
{
layerId = "1D6801CC-F467-42FC-B264-F4F04A585D09";
width = 1200;
},
{
backgroundImage = {
crop = "{{0, 0}, {138, 280}}";
imagePath = "../documentation/resources/glyph images/large_3.gif";
transform = "{4.96, 0, 0, 4.96, -179, 0}";
};
layerId = "A206D0FC-BA4D-4B80-B5C2-F7675B673614";
paths = (
{
closed = 1;
nodes = (
"116 1316 OFFCURVE",
"179 1147 OFFCURVE",
"179 1049 CURVE SMOOTH",
"179 932 OFFCURVE",
"89 776 OFFCURVE",
"69 757 CURVE",
"184 657 OFFCURVE",
"276 595 OFFCURVE",
"276 368 CURVE SMOOTH",
"276 181 OFFCURVE",
"214 131 OFFCURVE",
"69 0 CURVE",
"166 0 LINE",
"301 124 OFFCURVE",
"346 209 OFFCURVE",
"346 368 CURVE SMOOTH",
"346 550 OFFCURVE",
"287 639 OFFCURVE",
"133 774 CURVE",
"125 766 OFFCURVE",
"120 755 OFFCURVE",
"134 742 CURVE",
"182 817 OFFCURVE",
"269 893 OFFCURVE",
"269 1049 CURVE SMOOTH",
"269 1175 OFFCURVE",
"213 1313 OFFCURVE",
"146 1389 CURVE",
"43 1389 LINE"
);
}
);
width = 438;
}
);
unicode = 0033;
},
{
color = 1;
glyphname = five;
lastChange = "2020-05-04 20:23:25 +0000";
layers = (
{
layerId = "DE97F4B0-A943-4932-8B42-452AEC9B63CC";
width = 1200;
},
{
layerId = "1D6801CC-F467-42FC-B264-F4F04A585D09";
width = 1200;
},
{
backgroundImage = {
crop = "{{0, 0}, {138, 342}}";
imagePath = "../documentation/resources/glyph images/large_5.gif";
transform = "{4.96, 0, 0, 4.96, -8, -80}";
};
layerId = "A206D0FC-BA4D-4B80-B5C2-F7675B673614";
paths = (
{
closed = 1;
nodes = (
"422 228 OFFCURVE",
"576 435 OFFCURVE",
"575 622 CURVE SMOOTH",
"573 827 OFFCURVE",
"382 1022 OFFCURVE",
"126 1053 CURVE",
"143 1006 LINE",
"287 1366 LINE",
"225 1338 LINE",
"592 1338 LINE",
"631 1386 LINE",
"198 1386 LINE",
"46 986 LINE",
"289 990 OFFCURVE",
"483 815 OFFCURVE",
"485 622 CURVE SMOOTH",
"486 445 OFFCURVE",
"325 237 OFFCURVE",
"150 0 CURVE",
"254 0 LINE"
);
}
);
width = 647;
}
);
unicode = 0035;
},
{
color = 1;
glyphname = six;
lastChange = "2020-05-04 20:23:25 +0000";
layers = (
{
layerId = "DE97F4B0-A943-4932-8B42-452AEC9B63CC";
width = 1200;
},
{
layerId = "1D6801CC-F467-42FC-B264-F4F04A585D09";
width = 1200;
},
{
backgroundImage = {
crop = "{{0, 0}, {194, 342}}";
imagePath = "../documentation/resources/glyph images/large_6.gif";
transform = "{4.96, 0, 0, 4.96, 32, -80}";
};
layerId = "A206D0FC-BA4D-4B80-B5C2-F7675B673614";
paths = (
{
closed = 1;
nodes = (
"697 -30 OFFCURVE",
"877 150 OFFCURVE",
"877 372 CURVE SMOOTH",
"877 594 OFFCURVE",
"697 774 OFFCURVE",
"475 774 CURVE SMOOTH",
"253 774 OFFCURVE",
"73 594 OFFCURVE",
"73 372 CURVE SMOOTH",
"73 150 OFFCURVE",
"253 -30 OFFCURVE",
"475 -30 CURVE SMOOTH"
);
},
{
closed = 1;
nodes = (
"286 29 OFFCURVE",
"132 183 OFFCURVE",
"132 372 CURVE SMOOTH",
"132 561 OFFCURVE",
"286 715 OFFCURVE",
"475 715 CURVE SMOOTH",
"664 715 OFFCURVE",
"818 561 OFFCURVE",
"818 372 CURVE SMOOTH",
"818 183 OFFCURVE",
"664 29 OFFCURVE",
"475 29 CURVE SMOOTH"
);
},
{
closed = 1;
nodes = (
"406 1097 OFFCURVE",
"268 842 OFFCURVE",
"118 557 CURVE",
"187 558 LINE",
"366 898 OFFCURVE",
"472 1089 OFFCURVE",
"641 1382 CURVE",
"573 1382 LINE"
);
}
);
width = 948;
}
);
unicode = 0036;
},
{
color = 1;
glyphname = seven;
lastChange = "2020-05-04 20:23:25 +0000";
layers = (
{
layerId = "DE97F4B0-A943-4932-8B42-452AEC9B63CC";
width = 1200;
},
{
layerId = "1D6801CC-F467-42FC-B264-F4F04A585D09";
width = 1200;
},
{
backgroundImage = {
crop = "{{0, 0}, {152, 316}}";
imagePath = "../documentation/resources/glyph images/large_7.gif";
transform = "{4.96, 0, 0, 4.96, -66, -30}";
};
layerId = "A206D0FC-BA4D-4B80-B5C2-F7675B673614";
paths = (
{
closed = 1;
nodes = (
"312 452 OFFCURVE",
"506 978 OFFCURVE",
"673 1357 CURVE",
"18 1357 LINE",
"3 1313 OFFCURVE",
"-2 1300 OFFCURVE",
"-27 1256 CURVE",
"178 1292 OFFCURVE",
"276 1298 OFFCURVE",
"581 1298 CURVE",
"559 1313 LINE",
"382 876 OFFCURVE",
"213 437 OFFCURVE",
"53 0 CURVE",
"147 0 LINE"
);
}
);
width = 628;
}
);
unicode = 0037;
},
{
color = 1;
glyphname = eight;
lastChange = "2020-05-04 20:23:25 +0000";
layers = (
{
layerId = "DE97F4B0-A943-4932-8B42-452AEC9B63CC";
width = 1200;
},
{
layerId = "1D6801CC-F467-42FC-B264-F4F04A585D09";
width = 1200;
},
{
backgroundImage = {
crop = "{{0, 0}, {231, 342}}";
imagePath = "../documentation/resources/glyph images/large_8,.gif";
transform = "{4.95831, -0.12942, 0.12942, 4.95831, 24, -109}";
};
guideLines = (
{
angle = 270;
position = "{565, 879}";
},
{
angle = 270;
position = "{871, 849}";
},
{
angle = 270;
position = "{264, 863}";
},
{
position = "{620, 1116}";
},
{
position = "{-529, 510}";
}
);
layerId = "A206D0FC-BA4D-4B80-B5C2-F7675B673614";
paths = (
{
closed = 1;
nodes = (
"850 -30 OFFCURVE",
"1070 193 OFFCURVE",
"1070 473 CURVE SMOOTH",
"1070 749 OFFCURVE",
"850 969 OFFCURVE",
"574 969 CURVE SMOOTH",
"298 969 OFFCURVE",
"78 749 OFFCURVE",
"78 473 CURVE SMOOTH",
"78 193 OFFCURVE",
"298 -30 OFFCURVE",
"574 -30 CURVE SMOOTH"
);
},
{
closed = 1;
nodes = (
"333 35 OFFCURVE",
"142 228 OFFCURVE",
"142 473 CURVE SMOOTH",
"142 713 OFFCURVE",
"333 904 OFFCURVE",
"574 904 CURVE SMOOTH",
"815 904 OFFCURVE",
"1006 713 OFFCURVE",
"1006 473 CURVE SMOOTH",
"1006 228 OFFCURVE",
"815 35 OFFCURVE",
"574 35 CURVE SMOOTH"
);
},
{
closed = 1;
nodes = (
"735 910 OFFCURVE",
"871 1046 OFFCURVE",
"871 1214 CURVE SMOOTH",
"871 1381 OFFCURVE",
"735 1517 OFFCURVE",
"568 1517 CURVE SMOOTH",
"400 1517 OFFCURVE",
"264 1381 OFFCURVE",
"264 1214 CURVE SMOOTH",
"264 1046 OFFCURVE",
"400 910 OFFCURVE",
"568 910 CURVE SMOOTH"
);
},
{
closed = 1;
nodes = (
"433 969 OFFCURVE",
"323 1079 OFFCURVE",
"323 1214 CURVE SMOOTH",
"323 1348 OFFCURVE",
"433 1458 OFFCURVE",
"568 1458 CURVE SMOOTH",
"702 1458 OFFCURVE",
"812 1348 OFFCURVE",
"812 1214 CURVE SMOOTH",
"812 1079 OFFCURVE",
"702 969 OFFCURVE",
"568 969 CURVE SMOOTH"
);
}
);
width = 1148;
}
);
unicode = 0038;
},
{
color = 1;
glyphname = nine;
lastChange = "2020-05-04 20:23:25 +0000";
layers = (
{
layerId = "DE97F4B0-A943-4932-8B42-452AEC9B63CC";
width = 1200;
},
{
layerId = "1D6801CC-F467-42FC-B264-F4F04A585D09";
width = 1200;
},
{
backgroundImage = {
crop = "{{0, 0}, {195, 342}}";
imagePath = "../documentation/resources/glyph images/large_9.gif";
transform = "{4.96, 0, 0, 4.96, -32, -60}";
};
layerId = "A206D0FC-BA4D-4B80-B5C2-F7675B673614";
paths = (
{
closed = 1;
nodes = (
"239 1432 OFFCURVE",
"59 1252 OFFCURVE",
"59 1030 CURVE SMOOTH",
"59 808 OFFCURVE",
"239 628 OFFCURVE",
"461 628 CURVE SMOOTH",
"683 628 OFFCURVE",
"863 808 OFFCURVE",
"863 1030 CURVE SMOOTH",
"863 1252 OFFCURVE",
"683 1432 OFFCURVE",
"461 1432 CURVE SMOOTH"
);
},
{
closed = 1;
nodes = (
"650 1373 OFFCURVE",
"804 1219 OFFCURVE",
"804 1030 CURVE SMOOTH",
"804 841 OFFCURVE",
"650 687 OFFCURVE",
"461 687 CURVE SMOOTH",
"272 687 OFFCURVE",
"118 841 OFFCURVE",
"118 1030 CURVE SMOOTH",
"118 1219 OFFCURVE",
"272 1373 OFFCURVE",
"461 1373 CURVE SMOOTH"
);
},
{
closed = 1;
nodes = (
"519 285 OFFCURVE",
"668 560 OFFCURVE",
"818 845 CURVE",
"749 844 LINE",
"570 504 OFFCURVE",
"453 293 OFFCURVE",
"284 0 CURVE",
"352 0 LINE"
);
}
);
width = 924;
}
);
unicode = 0039;
},
{
glyphname = slash;
lastChange = "2020-04-30 19:50:48 +0000";
layers = (
{
layerId = "1D6801CC-F467-42FC-B264-F4F04A585D09";
width = 1200;
},
{
layerId = "DE97F4B0-A943-4932-8B42-452AEC9B63CC";
width = 1200;
},
{
backgroundImage = {
crop = "{{0, 0}, {133, 316}}";
imagePath = "../documentation/resources/glyph images/large_slash.png";
transform = "{4.96, 0, 0, 4.96, 0, -49}";
};
layerId = "A206D0FC-BA4D-4B80-B5C2-F7675B673614";
paths = (
{
closed = 1;
nodes = (
"57 0 LINE",
"110 0 LINE",
"456 876 LINE",
"403 876 LINE"
);
}
);
width = 540;
}
);
unicode = 002F;
},
{
export = 0;
glyphname = "_cap.stem.near-vert";
lastChange = "2020-05-05 19:11:48 +0000";
layers = (
{
layerId = "1D6801CC-F467-42FC-B264-F4F04A585D09";
paths = (
{
closed = 1;
nodes = (
"120 0 LINE",
"280 0 LINE",
"356 1500 LINE",
"196 1500 LINE"
);
}
);
width = 1200;
},
{
layerId = "DE97F4B0-A943-4932-8B42-452AEC9B63CC";
width = 600;
},
{
layerId = "A206D0FC-BA4D-4B80-B5C2-F7675B673614";
width = 600;
}
);
},
{
export = 0;
glyphname = _cap.stem.vert;
lastChange = "2020-05-05 19:10:14 +0000";
layers = (
{
layerId = "1D6801CC-F467-42FC-B264-F4F04A585D09";
paths = (
{
closed = 1;
nodes = (
"1338 0 LINE",
"1498 0 LINE",
"1498 1500 LINE",
"1338 1500 LINE"
);
}
